<svg id="Layer_1" data-name="Layer 1" xmlns="http://www.w3.org/2000/svg" viewBox="0 0 180.89 71.14"><defs><style>.cls-1{fill:#801c1f;}.cls-2{fill:#d82138;}</style></defs><title>Icons &amp;amp; Elements - Homepage</title><path class="cls-1" d="M48.55,55.68C46.34,59,42.3,63.78,42.3,63.78h0s0,0.08.06,0h0l0,0,0.07,0,0.13-.06,1-.52a85.75,85.75,0,0,0,11.61-6.9l0.58-.44a1.44,1.44,0,0,0,.2-0.18c0.61-.45,1.13-0.86,1.62-1.24a47.45,47.45,0,0,0,8.66-8.9c2.45-3.4,4.37-7.68,3.89-12.27a17.13,17.13,0,0,0-1.41-5.47,10.72,10.72,0,0,0-1-1.89,14.28,14.28,0,0,0-.83-1.19l-0.07-.08c-0.12-.15-0.25-0.31-0.38-0.45L66.37,24,66,23.66l-0.16-.15-0.37-.33L65.32,23l-0.39-.31-0.18-.14-0.43-.3-0.17-.11C64,22,63.77,21.93,63.57,21.83l-0.06,0-0.68-.34-0.14-.06a12.59,12.59,0,0,0-5.07-1,7.45,7.45,0,0,0-3.07.72S68.14,28.81,48.55,55.68Z"/><ellipse class="cls-1" cx="58.63" cy="13.92" rx="3.78" ry="3.8"/><path class="cls-1" d="M26.52,21.11a7.43,7.43,0,0,0-3.07-.72,12.64,12.64,0,0,0-5.07,1l-0.14.06-0.68.34-0.05,0-0.58.34-0.17.11-0.44.3-0.18.14L15.76,23l-0.17.15-0.37.33-0.15.15L14.71,24l-0.13.13-0.38.45-0.06.08a12.76,12.76,0,0,0-.83,1.19,10.47,10.47,0,0,0-1,1.89,17.06,17.06,0,0,0-1.42,5.47c-0.47,4.59,1.45,8.87,3.89,12.27a47.36,47.36,0,0,0,8.66,8.9c0.49,0.38,1,.8,1.62,1.24a1.34,1.34,0,0,0,.2.18l0.59,0.44a85.45,85.45,0,0,0,11.61,6.9l1,0.52,0.13,0.06,0.06,0,0,0h0c0.06,0,.1,0,0.06,0h0s-4-4.82-6.24-8.11C12.94,28.81,26.52,21.11,26.52,21.11Z"/><ellipse class="cls-1" cx="22.45" cy="13.92" rx="3.78" ry="3.8"/><path class="cls-2" d="M33.58,53.27c-1.41-2.17-4.15-6.88-4.92-8.42a55.11,55.11,0,0,1-3.15-8.14,14.69,14.69,0,0,1-.66-5.64,14.14,14.14,0,0,1,6.83-11s9-6,17.73,0a15.21,15.21,0,0,1,6.83,11,14.73,14.73,0,0,1-.66,5.64,55.62,55.62,0,0,1-3.16,8.14c-0.77,1.54-3.51,6.25-4.92,8.42-3.48,6-7,10.81-7,10.81S37.8,60.33,33.58,53.27Z"/><ellipse class="cls-2" cx="40.54" cy="10.12" rx="5.46" ry="5.49"/><path class="cls-1" d="M80.42,20.64h7.24q7,0,10.41,1.74A13.56,13.56,0,0,1,103.69,28a18.28,18.28,0,0,1,2.2,9.13A18.37,18.37,0,0,1,104.66,44a14.14,14.14,0,0,1-3.41,5.17A12,12,0,0,1,96.55,52a33.43,33.43,0,0,1-8.77.79H80.42V20.64Zm6.07,5.9V46.81h2.84a14.22,14.22,0,0,0,6.08-1,7.29,7.29,0,0,0,3.09-3.24,11.86,11.86,0,0,0,1.2-5.6q0-5.12-2.86-7.94-2.58-2.54-8.28-2.54H86.5Z"/><path class="cls-2" d="M128.59,25l-4.53,4q-2.38-3.32-4.86-3.32a3,3,0,0,0-2,.65,1.88,1.88,0,0,0-.77,1.45,2.48,2.48,0,0,0,.55,1.53,41.9,41.9,0,0,0,4.49,4.13q3.5,2.93,4.25,3.69a12.81,12.81,0,0,1,2.64,3.59,9,9,0,0,1,.78,3.75A8.59,8.59,0,0,1,126.42,51a10,10,0,0,1-7.13,2.58,10.59,10.59,0,0,1-6-1.68,13.3,13.3,0,0,1-4.36-5.29l5.14-3.1q2.32,4.26,5.34,4.26a3.94,3.94,0,0,0,2.65-.92,2.73,2.73,0,0,0,1.07-2.12,3.65,3.65,0,0,0-.81-2.18,23.45,23.45,0,0,0-3.57-3.34q-5.25-4.28-6.78-6.61A8.39,8.39,0,0,1,110.46,28,7.59,7.59,0,0,1,113,22.22a8.83,8.83,0,0,1,6.29-2.39,9.91,9.91,0,0,1,4.58,1.11A16.66,16.66,0,0,1,128.59,25Z"/><path class="cls-1" d="M164.52,26.28l-4.28,4.08q-4.36-4.61-9.82-4.61a10.76,10.76,0,0,0-10.91,10.91,11.48,11.48,0,0,0,1.4,5.71,10,10,0,0,0,3.95,3.91,11.46,11.46,0,0,0,5.67,1.42,11.69,11.69,0,0,0,4.87-1,17.48,17.48,0,0,0,4.84-3.62l4.15,4.33a22.82,22.82,0,0,1-6.73,4.82,18.39,18.39,0,0,1-7.23,1.34,16.64,16.64,0,0,1-12.27-4.75,16.44,16.44,0,0,1-4.77-12.18,16.65,16.65,0,0,1,2.17-8.54,16.15,16.15,0,0,1,6.23-6,17.54,17.54,0,0,1,8.72-2.27A18.52,18.52,0,0,1,164.52,26.28Z"/><path class="cls-1" d="M83.54,56h1.09v6H83.54V61.5a2.15,2.15,0,0,1-.64.43,1.76,1.76,0,0,1-.69.13,1.93,1.93,0,0,1-1.45-.65,2.27,2.27,0,0,1-.61-1.62,2.33,2.33,0,0,1,.59-1.64,1.89,1.89,0,0,1,1.44-.64,1.81,1.81,0,0,1,.73.15,2,2,0,0,1,.63.44V56ZM82.4,58.52a1.1,1.1,0,0,0-.84.36,1.42,1.42,0,0,0,0,1.84,1.1,1.1,0,0,0,.83.36,1.12,1.12,0,0,0,.85-0.35,1.3,1.3,0,0,0,.34-0.94,1.26,1.26,0,0,0-.34-0.92A1.13,1.13,0,0,0,82.4,58.52Z"/><path class="cls-1" d="M87.76,57.52a2.28,2.28,0,0,1,1.15.31,2.21,2.21,0,0,1,.84.83,2.23,2.23,0,0,1,.3,1.14,2.27,2.27,0,0,1-.3,1.15,2.21,2.21,0,0,1-.83.83,2.3,2.3,0,0,1-1.16.3,2.17,2.17,0,0,1-1.59-.66,2.3,2.3,0,0,1,.09-3.3A2.18,2.18,0,0,1,87.76,57.52Zm0,1a1.13,1.13,0,0,0-.84.35,1.4,1.4,0,0,0,0,1.82,1.11,1.11,0,0,0,.84.35,1.13,1.13,0,0,0,.85-0.36A1.27,1.27,0,0,0,89,59.8a1.26,1.26,0,0,0-.33-0.91A1.12,1.12,0,0,0,87.78,58.54Z"/><path class="cls-1" d="M90.94,57.63H92v0.44a2.62,2.62,0,0,1,.67-0.43,1.64,1.64,0,0,1,.61-0.12,1.48,1.48,0,0,1,1.09.45,1.53,1.53,0,0,1,.38,1.13V62H93.71v-1.9a4.8,4.8,0,0,0-.07-1,0.7,0.7,0,0,0-.24-0.39A0.68,0.68,0,0,0,93,58.51a0.8,0.8,0,0,0-.57.22,1.17,1.17,0,0,0-.33.61,5,5,0,0,0,0,.88V62H90.94V57.63Z"/><path class="cls-1" d="M95.84,57.63h1.09v0.44a2.6,2.6,0,0,1,.67-0.43,1.64,1.64,0,0,1,.61-0.12A1.48,1.48,0,0,1,99.3,58a1.54,1.54,0,0,1,.38,1.13V62H98.6v-1.9a4.78,4.78,0,0,0-.07-1,0.7,0.7,0,0,0-.24-0.39,0.68,0.68,0,0,0-.43-0.13,0.8,0.8,0,0,0-.57.22,1.19,1.19,0,0,0-.33.61,5,5,0,0,0,0,.88V62H95.84V57.63Z"/><path class="cls-1" d="M105.07,60.11h-3.49a1.17,1.17,0,0,0,.4.73,1.27,1.27,0,0,0,.84.27,1.44,1.44,0,0,0,1-.43l0.92,0.43a2.16,2.16,0,0,1-.82.72,2.55,2.55,0,0,1-1.13.23,2.25,2.25,0,0,1-1.66-.64,2.19,2.19,0,0,1-.64-1.61,2.26,2.26,0,0,1,.64-1.65,2.14,2.14,0,0,1,1.6-.66,2.22,2.22,0,0,1,1.66.66,2.37,2.37,0,0,1,.64,1.73v0.21ZM104,59.25a1.09,1.09,0,0,0-.42-0.59,1.24,1.24,0,0,0-.74-0.23,1.3,1.3,0,0,0-.8.26,1.43,1.43,0,0,0-.4.56H104Z"/><path class="cls-1" d="M105.69,57.63h0.93v0.55a1.19,1.19,0,0,1,.4-0.49,1,1,0,0,1,.55-0.17,1,1,0,0,1,.44.11l-0.34.94a0.74,0.74,0,0,0-.32-0.1,0.5,0.5,0,0,0-.42.31,2.84,2.84,0,0,0-.17,1.22v2h-1.08V57.63Z"/><path class="cls-2" d="M113.49,58.24l-0.67.67a1.14,1.14,0,0,0-.74-0.41,0.46,0.46,0,0,0-.29.08,0.23,0.23,0,0,0-.11.19,0.24,0.24,0,0,0,.07.16,1.2,1.2,0,0,0,.32.2l0.4,0.2a2.31,2.31,0,0,1,.86.63,1.32,1.32,0,0,1-.19,1.72,1.63,1.63,0,0,1-1.14.39,1.8,1.8,0,0,1-1.51-.74l0.67-.73a1.5,1.5,0,0,0,.45.36,1,1,0,0,0,.46.14,0.55,0.55,0,0,0,.35-0.1,0.3,0.3,0,0,0,.13-0.24,0.68,0.68,0,0,0-.47-0.49l-0.37-.18a1.55,1.55,0,0,1-1.05-1.32,1.15,1.15,0,0,1,.4-0.88,1.44,1.44,0,0,1,1-.36A1.76,1.76,0,0,1,113.49,58.24Z"/><path class="cls-2" d="M117.62,57.63h1.09V62h-1.09V61.5a2.16,2.16,0,0,1-.64.43,1.76,1.76,0,0,1-.69.13,1.93,1.93,0,0,1-1.45-.65,2.27,2.27,0,0,1-.61-1.62,2.33,2.33,0,0,1,.59-1.64,1.89,1.89,0,0,1,1.44-.64,1.82,1.82,0,0,1,.73.15,2,2,0,0,1,.63.44V57.63Zm-1.14.89a1.1,1.1,0,0,0-.84.36,1.42,1.42,0,0,0,0,1.84,1.1,1.1,0,0,0,.83.36,1.12,1.12,0,0,0,.85-0.35,1.32,1.32,0,0,0,.34-0.94,1.28,1.28,0,0,0-.34-0.92A1.13,1.13,0,0,0,116.48,58.52Z"/><path class="cls-2" d="M119.81,57.63h1.09v0.44a2.63,2.63,0,0,1,.67-0.43,1.65,1.65,0,0,1,.61-0.12,1.48,1.48,0,0,1,1.09.45,1.54,1.54,0,0,1,.38,1.13V62h-1.07v-1.9a4.87,4.87,0,0,0-.07-1,0.72,0.72,0,0,0-.24-0.39,0.68,0.68,0,0,0-.43-0.13,0.81,0.81,0,0,0-.57.22,1.19,1.19,0,0,0-.33.61,4.82,4.82,0,0,0,0,.88V62h-1.09V57.63Z"/><path class="cls-2" d="M127.9,57.63H129v3.71a2.45,2.45,0,0,1-.44,1.62,2.21,2.21,0,0,1-1.79.7,3.16,3.16,0,0,1-1.07-.16A1.94,1.94,0,0,1,125,63a1.91,1.91,0,0,1-.44-0.75h1.2a1,1,0,0,0,.41.28,1.67,1.67,0,0,0,.59.09,1.55,1.55,0,0,0,.7-0.14,0.79,0.79,0,0,0,.38-0.35,1.77,1.77,0,0,0,.11-0.74,1.76,1.76,0,0,1-.6.41,1.91,1.91,0,0,1-.71.12,2,2,0,0,1-1.47-.63,2.44,2.44,0,0,1,0-3.25,1.9,1.9,0,0,1,1.38-.57,1.84,1.84,0,0,1,.7.14,2.28,2.28,0,0,1,.67.45V57.63Zm-1.13.9a1.13,1.13,0,0,0-.85.34,1.2,1.2,0,0,0-.33.87,1.21,1.21,0,0,0,.34.89,1.17,1.17,0,0,0,.86.35,1.11,1.11,0,0,0,.83-0.34,1.35,1.35,0,0,0,0-1.77A1.14,1.14,0,0,0,126.77,58.53Z"/><path class="cls-1" d="M136.6,58.51l-0.9.5a1.55,1.55,0,0,0-.51-0.37,1.51,1.51,0,0,0-.58-0.1,1.36,1.36,0,0,0-1,.36,1.24,1.24,0,0,0-.38.93,1.2,1.2,0,0,0,.36.9,1.31,1.31,0,0,0,1,.35,1.39,1.39,0,0,0,1.14-.5l0.86,0.59a2.33,2.33,0,0,1-2,.91,2.36,2.36,0,0,1-1.79-.68,2.25,2.25,0,0,1,.55-3.58,2.63,2.63,0,0,1,1.26-.3,2.54,2.54,0,0,1,1.16.26A2.2,2.2,0,0,1,136.6,58.51Z"/><path class="cls-1" d="M139.62,57.52a2.29,2.29,0,0,1,1.15.31,2.21,2.21,0,0,1,.84.83,2.24,2.24,0,0,1,.3,1.14,2.28,2.28,0,0,1-.31,1.15,2.2,2.2,0,0,1-.83.83,2.29,2.29,0,0,1-1.16.3,2.16,2.16,0,0,1-1.59-.66,2.3,2.3,0,0,1,.09-3.3A2.17,2.17,0,0,1,139.62,57.52Zm0,1a1.12,1.12,0,0,0-.84.35,1.25,1.25,0,0,0-.34.9,1.27,1.27,0,0,0,.33.91,1.11,1.11,0,0,0,.84.35,1.13,1.13,0,0,0,.85-0.36,1.4,1.4,0,0,0,0-1.82A1.13,1.13,0,0,0,139.63,58.54Z"/><path class="cls-1" d="M142.79,57.63h1.09v0.5a1.86,1.86,0,0,1,.62-0.46,1.82,1.82,0,0,1,.74-0.15,1.38,1.38,0,0,1,.73.2,1.45,1.45,0,0,1,.53.58,1.75,1.75,0,0,1,.63-0.58,1.73,1.73,0,0,1,.82-0.2,1.53,1.53,0,0,1,.81.22,1.23,1.23,0,0,1,.5.56,3,3,0,0,1,.16,1.13V62h-1.1v-2.2a1.87,1.87,0,0,0-.18-1,0.63,0.63,0,0,0-.55-0.26,0.83,0.83,0,0,0-.5.16,0.93,0.93,0,0,0-.33.44,2.74,2.74,0,0,0-.11.9v2h-1.09v-2.1a2.94,2.94,0,0,0-.09-0.84,0.76,0.76,0,0,0-.26-0.39,0.68,0.68,0,0,0-.42-0.13,0.82,0.82,0,0,0-.49.16,1,1,0,0,0-.33.45,2.75,2.75,0,0,0-.11.92V62h-1.09V57.63Z"/><path class="cls-1" d="M151.54,57.63v0.48a2,2,0,0,1,.64-0.44,1.82,1.82,0,0,1,.73-0.15,1.89,1.89,0,0,1,1.44.64,2.33,2.33,0,0,1,.59,1.64,2.27,2.27,0,0,1-.61,1.62,1.93,1.93,0,0,1-1.45.65,1.77,1.77,0,0,1-.7-0.13,2.11,2.11,0,0,1-.64-0.43v2h-1.08V57.63h1.08Zm1.14,0.89a1.14,1.14,0,0,0-.85.35,1.26,1.26,0,0,0-.34.92,1.31,1.31,0,0,0,.34.94,1.13,1.13,0,0,0,.85.35,1.1,1.1,0,0,0,.84-0.36,1.42,1.42,0,0,0,0-1.84A1.11,1.11,0,0,0,152.69,58.52Z"/><path class="cls-1" d="M156,56h1.09v1.6h0.65v0.94h-0.65V62H156V58.57h-0.56V57.63H156V56Z"/><path class="cls-1" d="M162.63,60.11h-3.49a1.16,1.16,0,0,0,.4.73,1.26,1.26,0,0,0,.84.27,1.44,1.44,0,0,0,1-.43l0.92,0.43a2.15,2.15,0,0,1-.82.72,2.57,2.57,0,0,1-1.14.23,2.24,2.24,0,0,1-1.66-.64,2.19,2.19,0,0,1-.64-1.61,2.26,2.26,0,0,1,.64-1.65,2.14,2.14,0,0,1,1.6-.66,2.22,2.22,0,0,1,1.66.66,2.37,2.37,0,0,1,.64,1.73v0.21Zm-1.09-.86a1.07,1.07,0,0,0-.42-0.59,1.23,1.23,0,0,0-.74-0.23,1.3,1.3,0,0,0-.8.26,1.41,1.41,0,0,0-.4.56h2.36Z"/><path class="cls-1" d="M163.25,57.63h0.93v0.55a1.16,1.16,0,0,1,.4-0.49,1,1,0,0,1,.55-0.17,1,1,0,0,1,.44.11l-0.34.94a0.74,0.74,0,0,0-.32-0.1,0.5,0.5,0,0,0-.42.31,2.84,2.84,0,0,0-.17,1.22v2h-1.08V57.63Z"/></svg>