<?xml version="1.0" encoding="utf-8"?>
<!-- Generator: Adobe Illustrator 22.1.0, SVG Export Plug-In . SVG Version: 6.00 Build 0)  -->
<svg version="1.1" id="Layer_1" xmlns="http://www.w3.org/2000/svg" xmlns:xlink="http://www.w3.org/1999/xlink" x="0px" y="0px"
	 viewBox="0 0 91 91" style="enable-background:new 0 0 91 91;" xml:space="preserve">
<style type="text/css">
	.st0{fill:#FFFFFF;}
	.st1{fill:#CC2027;}
</style>
<g>
	<path class="st0" d="M45.5,0.5c-24.9,0-45,20.2-45,45c0,24.9,20.2,45,45,45c24.9,0,45-20.2,45-45C90.6,20.6,70.4,0.5,45.5,0.5"/>
	<g>
		<g>
			<g>
				<g>
					<path class="st1" d="M45.5,0C20.4,0,0,20.4,0,45.5C0,70.6,20.4,91,45.5,91C70.6,91,91,70.6,91,45.5C91,20.4,70.6,0,45.5,0
						 M45.5,74.8c-16.2,0-29.3-13.1-29.3-29.3c0-16.2,13.1-29.3,29.3-29.3c16.2,0,29.3,13.1,29.3,29.3
						C74.8,61.7,61.7,74.8,45.5,74.8"/>
					<polygon class="st1" points="65.7,38.8 52,38.8 52,25.4 38.7,25.4 38.7,38.8 25.4,38.8 25.4,52.2 38.7,52.2 38.7,65.7 52,65.7 
						52,52.2 65.7,52.2 					"/>
					<path class="st0" d="M11.8,23.1l-0.4-1.6l-1.6,0.3l0.4,1.7L11.8,23.1z M19.7,23.3l0.2,1.7l1.6-0.2l-0.2-1.6L19.7,23.3z
						 M23.9,16.4c-0.1-0.2-0.3-0.4-0.5-0.6C22.8,15,21.8,14,21.8,14c0,0,0.1-0.1,0.1-0.2c0-0.3,0-0.9-0.2-1.1
						c-0.3-0.5-0.6-0.1-1.2-0.3c-0.4-0.1-0.4-0.2-0.6-0.4c-0.1-0.1-0.1-0.2-0.4-0.3c0,0-0.2,1.7,0.2,2.3c0.3,0.3,0.6,0.4,1.1,0.9
						c0.8,0.8,1.2,1.4,1.5,1.5l0.1,0.2c-0.2,0.1-1.4,1.1-1.5,1.2c-0.5,0.2-1.1-0.6-1.2-0.7c0,0-1.3-1.4-2-2.1
						c-0.5-0.6-1-1.1-1.2-1.1c0,0.2,0,1.7,0.2,1.8l2.5,2.6l0.4,0.5c-0.1,0.1-1.5,1.4-1.5,1.4c0,0-0.7,0.2-1.2-0.2
						c-0.2-0.2-0.2-0.3-0.3-0.4c0,0-0.1-0.1-0.2-0.1c-0.4,0.4,0.6,1.8,0.6,1.9L15,23.9c0,0-0.7,0.3-1.2-0.1
						c-0.2-0.2-0.2-0.3-0.3-0.4c0,0-0.2-0.1-0.2,0c-0.3,0.5,0.9,1.7,0.8,1.8l-1.8,2.8c-0.2,0.3-0.5,0.3-0.9,0.1
						c-1.6-0.9-3.4-1.6-3.6-1.7c-0.2-0.1-0.8-0.4-0.9-0.3c-0.1,0.1,0,0.1,0.4,0.9c0.1,0.2,0.4,0.9,0.5,1c0.1,0,0.9,0.1,1.2,0.2
						c1.1,0.4,2.8,1.2,2.8,1.2c1.2,0.6,1.6,0.7,1.7,0.5c0,0,1.4-2.5,1.9-3.2c0.5-0.7-0.4-1.2-0.4-1.6c0.5,0.2,1.1,0.6,1.7-0.2
						c0-0.1,0.6-0.8,0.8-1.2c0.2-0.3,0.7-0.7,0.9-0.9c0.6-0.7-0.3-1.2-0.2-1.6c0.5,0.3,1,0.8,1.7,0.1c0,0,1.5-1.4,1.5-1.4
						c0.2-0.2,0.1-0.5,0-0.7c0.6,0.2,0.7,0.2,1-0.1c0,0,0.5-0.5,0.8-0.7l0.9-0.6c0.4-0.3,0.4-0.6,0.3-0.9
						C24.1,16.8,24,16.5,23.9,16.4 M23.6,11.3c-0.3-0.4-0.5-0.7-0.8-1.1c-0.1-0.2-0.2-0.6-0.4-0.4c-0.2,0.1-0.1,0.8,0,0.9
						c0.1,0.9,0.1,1.2,0.2,1.3c0.5,0.7,0.5,0.8,0.7,1.1c0.9,1.2,2.2,3.6,2.5,3.8c0.1-0.6,0.3-1.6,0.1-1.9
						C25.8,14.7,24.2,12.3,23.6,11.3 M49.6,8.8c-1.4,0-2.9-0.8-3.8-1.4c-0.6-0.4-1.3-1.2-2.1-1.2c-1.1,0-1.9,1.8-1.9,1.9
						c0,0.1,0,0.1,0,0.2C42,8.2,42,8.1,42.6,8.2c0.5,0,1.4,0.5,1.4,0.5c0.2,0.1,0.8,0.5,0.8,0.5s-2.3-0.1-3.5,0
						C40.1,9.2,39,9.6,39,9.6c-0.1-0.2-0.3-0.2-0.7-0.9c-0.2-0.3-0.5-1-1.3-0.8c-0.2,0-0.9,0.3-1.2,1c-0.3,0.7-0.3,1.3-0.6,1.5
						c-0.4,0.1-0.8,0.1-1.5,0.4c-0.5,0.2-1.6,0.9-3.1-0.3c-0.1,0.3,0.2,1.7,0.2,1.7c0.2,0.5,1.5,1,1.5,1c0.1,0.2-0.4,1.3-0.4,1.3
						c-0.3,0.7-1.1,1.5-1.7,1.7c-0.4,0.2-0.8,0.2-0.9,0.2c-0.1,0-0.1,0.2-0.1,0.2c0.1,0.2,0.8,0.3,0.9,0.3c0.4,0.1,1.2,0.1,2.1-0.2
						c0.9-0.4,1.1-1.5,1-2.5c-0.1-0.7-0.3-1.1,0-1.2c0.3-0.1,1.7-0.6,1.7-0.6c0.7-0.1,0.4-0.7,0.7-1.2c0.4,0.9-0.3,0.5,1.7,1.3
						c0.8,0.3,1,0.5,1.1,0.5c0.3,0,0.1-1.2,0.3-1.3c0.2-0.1,1.5-0.4,2.5-0.5c0.9-0.1,3.5,0,3.5,0c0.4,0,1.6-0.8,2.5-0.8l0.6,0
						l0.8,0.2c0-0.1,1.1-1.7,1.1-1.7C49.6,8.8,49.6,8.8,49.6,8.8 M36.1,10.1c0.1-0.2,0.5-0.6,0.8-0.6c0.3-0.1,0.9,0.3,1,0.8
						C38,10.3,36.8,10.3,36.1,10.1 M52,4c0.1-0.2-0.1,0-0.5-0.1c-1-0.2-1.2-0.6-1.2-0.8C50.3,3,50.5,3,50.5,3c0.4,0,0.5,0.5,0.6,0.5
						c0.2,0,0.8-0.6,0.8-0.7c0.1-0.2-0.3-0.4-0.5-0.5c-0.6-0.2-0.9,0.1-1.3,0.4c-0.3,0.2-0.5,0.4-0.5,0.6c-0.1,0.5,0.3,0.7,0.5,0.8
						c-0.3,0.4-0.6,0.6-0.6,0.8c0.2-0.1,0.3-0.2,0.5-0.3c0.6-0.3,1.2-0.1,1.5-0.1C51.6,4.6,51.9,4.4,52,4 M58.3,7.3
						c0-0.2-0.3-0.5-0.4-1.1c-0.1-0.5,0-0.8-0.1-0.9c-0.1,0-0.1,0-0.5,0.4c0,0-0.7,0.7-0.8,0.9c-0.1,0.2,0,1.2-1.1,1.9
						c-0.5-1.2-1.4-2.3-2.1-3c-0.8-0.8-1-1-1-1c-0.1,0-0.3,0.3-0.3,0.4c-0.1,0.2-0.4,0.6-0.5,1.2c-0.1,0.3,0,0.3,0.5,1.2
						c0.2,0.4,0.4,0.8,0.5,0.8c0.2,0,0.2-0.1,0.4-0.6c0,0,1.6,1.7,1.5,1.7c-0.4,0.3-2.2,0.5-2.5,0.5c-0.3,0.1-0.1-0.3-0.2-0.5
						c-0.2,0.1-0.4,0.9-0.4,0.9c-0.3,1.2,0,1.4,0,1.4c0.2,0.1,4.4,1.2,4.4,1.2c0,0,0.1-0.1,0.1-0.1c0.2-0.8,0.4-1.1,0.5-1.5
						c0.2-0.7-0.5-1.7-0.5-1.8c0-0.1-0.1,0.1,0.3-0.3c0.4-0.4,0.4-0.5,0.6-0.6c0.1,0.1,0.2,0.3,0.3,0.4c0.1,0,0.1,0,0.6-0.6
						C57.7,8.1,58.3,7.4,58.3,7.3 M53.6,10.2c0,0,1.2-0.4,1.2-0.4c0,0,0.4,0.5,0.4,0.9C54.5,10.5,53.7,10.3,53.6,10.2 M61.6,7
						c-0.2-0.1-0.7,0.4-0.8,0.5c-0.7,0.6-0.9,0.8-0.9,0.9c-0.3,0.8-0.4,0.9-0.5,1.2c-0.5,1.4-1.7,3.9-1.7,4.2c0.5-0.2,1.5-0.7,1.6-1
						c0.1-0.3,1.2-2.9,1.6-4c0.2-0.5,0.3-0.8,0.5-1.3C61.5,7.4,61.8,7,61.6,7 M70.8,24.6l-1.5-0.1l-0.1,1.4l1.5,0.1L70.8,24.6z
						 M70.7,27.4l1.5,0.1l0.1-1.4L70.7,26L70.7,27.4z M80.2,41c0.2,0,0.5,0.1,0.7,0.1c0.2,0,0.5-0.1,0.8-0.1
						c0.9-0.2,2.3-0.7,2.3-0.7c0,0,0,0.1,0.2,0.2c0.3,0.2,0.8,0.3,1.1,0.3c0.6,0,0.3-0.5,0.8-0.9c0.3-0.3,0.4-0.3,0.6-0.3
						c0.1,0,0.2,0,0.4-0.2c0,0-1.5-0.9-2.2-0.8c-0.4,0.1-0.6,0.4-1.3,0.6c-1.1,0.3-1.8,0.5-2,0.6l-0.2,0c0-0.3-0.1-0.7-0.2-1
						l-0.3-1.4c0,0,0.3,0.1,0.4,0c0.8-0.2,1.9-1.5,1.4-2.7c-0.3-0.7-2.3-2.4-2.6-2.6c-0.8-0.6-1.2-0.9-1.2-0.9
						c-0.7-0.4-0.7-1.1-0.1-1.4c0.5-0.3,0.8-0.2,0.8-0.2c0.1,0,0.1-0.1,0.1-0.2c-0.1-0.2-1.1-0.4-1.8,0.1c-0.2-0.5-1-1.8-1-1.9
						c-0.1-0.5,0.8-1,0.8-1c0,0,1.6-1,2.4-1.6c0.6-0.4,1.2-0.8,1.3-0.9c-0.2-0.1-1.7-0.3-1.8-0.1l-2.9,2.1L76,26.3
						c0-0.1-1.2-1.7-1.2-1.7c0,0-0.1-0.7,0.4-1.2c0.2-0.2,0.3-0.1,0.4-0.2c0,0,0.2-0.1,0.1-0.2c-0.4-0.5-1.9,0.3-2,0.3l-2.3-3.1
						c0,0-0.1-0.6,0.3-1.1c0.2-0.2,0.3-0.2,0.4-0.3c0,0,0.1-0.2,0-0.2c-0.5-0.4-1.8,0.8-1.9,0.8L65,15.1c-0.9-0.7-1.3-1.7-0.5-2.7
						c0.9-1.1,2.2-1.2,2.5-1.6c-0.4-0.1-1.1,0.2-1.6,0.4c-1.3,0.5-2.1,1.2-2.4,1.5c-0.6,0.8-0.8,1.9-0.6,2.4c0.4,0.8,1,1.2,1.4,1.5
						c0,0,4.6,3.6,4.9,3.8c0.7,0.6,1.2-0.4,1.6-0.4c-0.2,0.5-1.1,0.7-0.1,1.7c0.2,0.2,1.5,1.9,1.7,2.2c0.5,0.7,1.3-0.1,1.6,0
						c-0.3,0.4-0.9,0.9-0.3,1.6c0,0,1.2,1.7,1.2,1.7c0.1,0.2,0.4,0.1,0.7,0.1c-0.3,0.6-0.3,0.7-0.1,1c0,0.1,0.4,0.6,0.5,0.9
						c0.1,0.1,0.2,0.3,0.3,0.5c0.2,0.3,0.5,0.3,0.8,0.3c-0.5,0.2,0.2,1.6,0.4,2.2c0,0,1.9,5.1,2.2,6.6l0.2,1.4
						C79.6,40.8,79.9,40.9,80.2,41 M79.5,32.6c0,0,1.3,1.2,1.4,1.7c0.1,0.4,0,1.2-0.4,1.6L79.5,32.6L79.5,32.6z M87.5,42.6
						c0-0.2-0.7-0.4-0.8-0.4c-0.8-0.3-1.1-0.4-1.3-0.4c-0.9,0.1-1,0.1-1.3,0.2c-1.5,0.3-4.2,0.4-4.5,0.6c0.4,0.4,1.4,1,1.7,1
						c0.3,0,3.2-0.4,4.3-0.5c0.5-0.1,0.8-0.1,1.3-0.2C87.1,42.7,87.5,42.8,87.5,42.6"/>
					<polygon class="st0" points="14.5,37.7 15.3,38.9 16.4,38.2 15.7,37 					"/>
					<polygon class="st0" points="3.5,32 4.4,33.4 5.8,32.6 4.9,31.2 					"/>
					<path class="st0" d="M11.9,36.3c-1-0.3-1.3,0.6-1.8,1.3l1.5-4.8c0.1-0.3-0.1-0.4-0.6-0.5c-0.3-0.1-0.9-0.4-1.4-0.6
						c-0.4-0.1-1.3-0.2-2.3,0.1c-0.7,0.2-0.8,0.2-0.8,0.2s0.6,0.6,0.6,0.6c0.1,0.1,0.7,0.6,0.9,0.7c0.3,0.1,1-0.4,1.4-0.2
						c-0.2,0.7-0.4,1.6-0.9,2.8c-0.5,1.5-0.2,1.9,0.1,2.6c0.4,0.8,1.2,1.3,1.4,1.4c0.9,0.3,1.2-1.1,1.6-1.5c0.1,0.3,0.1,1.5-0.1,2.1
						c-0.3,1-1.4,1.8-2.4,1.5c-0.9-0.3-1.5-1.3-1.8-1.4c-0.2-0.1-0.4,0-0.4,0.1c0,0.1,0,0.1,0.6,0.9c0.7,0.8,1.2,1.4,2.4,1.7
						c1.3,0.4,2.6-0.1,3.1-1.7c0.2-0.7,0.5-2.2-0.1-3.8C12.7,36.9,12.1,36.4,11.9,36.3"/>
					<polygon class="st0" points="14.1,39.6 14.9,40.8 16.1,40.1 15.3,38.9 					"/>
					<path class="st0" d="M8.3,53.1L8,55c-0.5-0.1-1-0.2-1.4-0.4c-0.4-0.2-0.7-0.5-0.9-0.9c-0.2-0.4-0.4-0.9-0.5-1.5
						c-0.1-0.8-0.1-1.4,0.1-1.9c0.2-0.5,0.5-1,1-1.4c0.5-0.4,1.2-0.7,2.1-0.8c1.1-0.1,2.1,0.1,2.8,0.6c0.7,0.5,1.1,1.4,1.2,2.5
						c0.1,0.9,0,1.6-0.3,2.1c-0.3,0.5-0.8,1-1.5,1.3l-0.6-1.8c0.2-0.1,0.3-0.2,0.4-0.3c0.1-0.1,0.3-0.3,0.3-0.5
						c0.1-0.2,0.1-0.4,0.1-0.6c-0.1-0.5-0.3-0.8-0.7-1c-0.3-0.2-0.8-0.2-1.4-0.1c-0.8,0.1-1.3,0.3-1.5,0.5c-0.3,0.3-0.4,0.6-0.3,1
						c0,0.4,0.2,0.7,0.5,0.9C7.5,52.9,7.8,53.1,8.3,53.1"/>
					<path class="st0" d="M10.9,54.9l0.5,1.7l-0.8,0.2c0.4,0.1,0.7,0.2,0.9,0.3c0.2,0.1,0.3,0.3,0.4,0.6c0.1,0.3,0.1,0.6,0,1
						l-1.5-0.2c0-0.2,0-0.4,0-0.6c-0.1-0.2-0.2-0.4-0.5-0.5c-0.3-0.1-0.9-0.1-1.7,0.2l-1.6,0.5L6,56.3L10.9,54.9z"/>
					<path class="st0" d="M9.5,59.5c0.7-0.3,1.4-0.4,2.1-0.1c0.7,0.3,1.2,0.8,1.6,1.6c0.4,0.9,0.5,1.7,0.2,2.4
						c-0.3,0.6-0.7,1-1.3,1.3c-0.7,0.3-1.4,0.4-2.1,0.1c-0.7-0.3-1.2-0.8-1.6-1.6c-0.3-0.7-0.4-1.4-0.3-2
						C8.3,60.4,8.8,59.8,9.5,59.5 M10.4,61.2c-0.4,0.2-0.7,0.4-0.8,0.7c-0.1,0.3-0.1,0.5,0,0.8c0.1,0.3,0.3,0.4,0.6,0.5
						c0.3,0.1,0.6,0,1-0.2c0.4-0.2,0.7-0.4,0.8-0.7c0.1-0.3,0.1-0.5,0-0.7c-0.1-0.3-0.3-0.4-0.6-0.5C11.1,61,10.8,61,10.4,61.2"/>
					<path class="st0" d="M14.6,63.9l1.1,1.6l-4.2,2.8l-1.1-1.6L14.6,63.9z M16.2,62.9l1.1,1.6l-1.1,0.7l-1.1-1.6L16.2,62.9z"/>
					<polygon class="st0" points="15.7,65.8 17.2,67.6 16.7,69.1 18.4,68.9 19.8,70.5 16.8,70.8 16,73.9 14.6,72.2 15.2,70.4 
						13.2,70.7 11.8,69.1 15,68.7 					"/>
					<path class="st0" d="M19.3,76.7l3.8-5.8l3,2c0.6,0.4,1,0.7,1.2,1c0.2,0.3,0.4,0.6,0.4,1c0,0.4-0.1,0.8-0.3,1.1
						c-0.2,0.3-0.5,0.6-0.8,0.7c-0.3,0.1-0.6,0.2-0.9,0.2c-0.2,0-0.5-0.1-0.8-0.2c0.2,0.2,0.3,0.4,0.3,0.5c0,0.1,0.1,0.3,0.1,0.5
						c0,0.2,0,0.4,0,0.5l-0.2,2.3l-2-1.3l0.2-2.4c0-0.3,0-0.5,0-0.7c-0.1-0.2-0.2-0.3-0.4-0.4l-0.2-0.1l-1.5,2.4L19.3,76.7z
						 M23.4,74.4l0.8,0.5c0.1,0.1,0.3,0.1,0.5,0.2c0.1,0.1,0.3,0.1,0.4,0c0.1,0,0.3-0.1,0.3-0.3c0.1-0.2,0.2-0.4,0.1-0.6
						c-0.1-0.2-0.2-0.4-0.6-0.6l-0.8-0.5L23.4,74.4z"/>
					<path class="st0" d="M26.3,78.2c0.3-0.7,0.8-1.2,1.5-1.4c0.7-0.2,1.4-0.2,2.2,0.2c0.9,0.4,1.5,1,1.7,1.7
						c0.2,0.6,0.1,1.2-0.1,1.8c-0.3,0.7-0.8,1.2-1.5,1.4c-0.7,0.2-1.4,0.2-2.3-0.2c-0.7-0.3-1.3-0.8-1.6-1.4
						C26,79.7,26,79,26.3,78.2 M28.1,79c-0.2,0.4-0.2,0.8-0.2,1c0.1,0.3,0.2,0.5,0.5,0.6c0.3,0.1,0.5,0.1,0.8,0
						c0.2-0.1,0.5-0.4,0.7-0.8c0.2-0.4,0.2-0.7,0.1-1c-0.1-0.3-0.2-0.5-0.5-0.6c-0.3-0.1-0.5-0.1-0.8,0C28.5,78.3,28.3,78.6,28.1,79
						"/>
					<path class="st0" d="M36.8,84.6L35,84.1l0.2-0.8c-0.3,0.3-0.7,0.4-1,0.5c-0.3,0.1-0.6,0-1-0.1c-0.5-0.1-0.9-0.4-1.1-0.8
						c-0.2-0.4-0.2-0.9-0.1-1.5l0.8-3.1l1.9,0.5l-0.7,2.7c-0.1,0.3-0.1,0.5,0,0.7c0.1,0.2,0.2,0.3,0.4,0.3c0.2,0.1,0.4,0,0.6-0.1
						c0.2-0.1,0.3-0.4,0.5-0.9l0.6-2.3l1.9,0.5L36.8,84.6z"/>
					<path class="st0" d="M42.1,80.2l1.8,0.2l-0.6,4.7l0,0.2c0,0.3-0.1,0.6-0.3,0.9c-0.2,0.3-0.4,0.5-0.6,0.6
						c-0.2,0.2-0.5,0.2-0.9,0.3c-0.4,0-0.7,0-1.2,0c-1-0.1-1.7-0.4-2-0.7c-0.3-0.3-0.5-0.8-0.4-1.3c0-0.1,0-0.1,0-0.3l1.8,0.4
						c0,0.2,0.1,0.3,0.2,0.4c0.1,0.1,0.3,0.2,0.5,0.2c0.3,0,0.5,0,0.6-0.1c0.2-0.1,0.3-0.4,0.3-0.8l0.1-0.8
						c-0.2,0.2-0.4,0.3-0.6,0.4c-0.3,0.1-0.6,0.2-1,0.1c-0.7-0.1-1.2-0.4-1.5-1.1c-0.2-0.5-0.3-1-0.2-1.7c0.1-0.8,0.4-1.4,0.8-1.7
						c0.4-0.4,0.9-0.5,1.6-0.4c0.4,0,0.7,0.2,0.9,0.3c0.2,0.2,0.4,0.4,0.6,0.7L42.1,80.2z M40,82.4c0,0.4,0,0.6,0.1,0.8
						c0.1,0.2,0.3,0.3,0.6,0.3c0.2,0,0.5,0,0.6-0.2c0.2-0.2,0.3-0.4,0.3-0.8c0-0.4,0-0.7-0.2-0.9c-0.1-0.2-0.3-0.3-0.6-0.4
						c-0.2,0-0.5,0-0.6,0.2C40.2,81.7,40.1,82,40,82.4"/>
					<path class="st0" d="M50.2,83.3l-3.9,0.1c0,0.3,0.1,0.5,0.3,0.7c0.2,0.2,0.4,0.3,0.7,0.3c0.2,0,0.4-0.1,0.5-0.2
						c0.1-0.1,0.2-0.2,0.3-0.3l1.9,0.1c-0.3,0.5-0.6,0.9-1,1.1c-0.4,0.2-1,0.4-1.8,0.4c-0.7,0-1.2-0.1-1.6-0.2
						c-0.4-0.2-0.7-0.5-1-0.9c-0.3-0.4-0.4-0.9-0.4-1.4c0-0.8,0.2-1.4,0.7-1.9c0.5-0.5,1.2-0.8,2.1-0.8c0.7,0,1.3,0.1,1.7,0.3
						c0.4,0.2,0.7,0.5,1,0.9c0.2,0.4,0.3,0.9,0.4,1.6L50.2,83.3z M48.2,82.4c0-0.4-0.2-0.6-0.3-0.8c-0.2-0.2-0.4-0.2-0.6-0.2
						c-0.3,0-0.6,0.1-0.7,0.4c-0.1,0.2-0.2,0.4-0.2,0.7L48.2,82.4z"/>
					<polygon class="st0" points="53.1,78 55.2,77.5 56.4,82.6 59.7,81.8 60.1,83.4 54.7,84.7 					"/>
					<path class="st0" d="M58.6,76.5l1.8-0.7l0.5,1.2L59,77.7L58.6,76.5z M59.2,78.3l1.8-0.7l1.8,4.7L61.1,83L59.2,78.3z"/>
					<path class="st0" d="M60.8,75.7l1.7-0.9l1.2,2.1c0.1-0.3,0.2-0.5,0.4-0.7c0.2-0.2,0.4-0.4,0.6-0.5c0.5-0.3,1.1-0.3,1.7-0.1
						c0.6,0.2,1,0.7,1.4,1.4c0.3,0.5,0.4,1,0.5,1.4c0,0.5,0,0.9-0.2,1.2c-0.2,0.3-0.5,0.6-0.8,0.8c-0.3,0.2-0.6,0.2-0.9,0.3
						c-0.2,0-0.5-0.1-0.9-0.2l0.4,0.7l-1.6,0.9L60.8,75.7z M64.7,78.7c0.2,0.4,0.4,0.6,0.7,0.7c0.2,0.1,0.5,0.1,0.7,0
						c0.2-0.1,0.3-0.3,0.4-0.5c0-0.2,0-0.6-0.3-1c-0.2-0.4-0.4-0.6-0.6-0.7c-0.2-0.1-0.4-0.1-0.6,0c-0.2,0.1-0.4,0.3-0.4,0.6
						C64.4,78,64.5,78.3,64.7,78.7"/>
					<path class="st0" d="M69.2,74.8l-1.6,1c-0.1-0.3-0.2-0.6-0.2-0.8c0-0.2,0-0.5,0.1-0.7c0.1-0.2,0.2-0.4,0.4-0.6
						c0.2-0.2,0.5-0.5,0.7-0.7c0.5-0.4,0.8-0.6,1.2-0.8c0.3-0.2,0.6-0.2,0.9-0.2c0.2,0,0.4,0.1,0.7,0.2c0.2,0.1,0.4,0.3,0.6,0.5
						l1.4,1.7c0.1,0.2,0.3,0.3,0.4,0.4c0.1,0.1,0.3,0.2,0.5,0.3l-1.4,1.1c-0.1-0.1-0.2-0.1-0.3-0.1c-0.1,0-0.1-0.1-0.3-0.2
						c0,0.3-0.1,0.6-0.3,0.9c-0.2,0.3-0.4,0.6-0.8,0.9c-0.5,0.4-0.9,0.6-1.3,0.5c-0.4,0-0.8-0.2-1-0.5c-0.2-0.3-0.4-0.6-0.3-0.9
						c0-0.3,0.2-0.7,0.6-1.2c0.5-0.6,0.8-0.9,0.9-1.1c0.1-0.2,0.3-0.4,0.4-0.6c-0.1-0.2-0.3-0.3-0.4-0.3c-0.1,0-0.3,0.1-0.5,0.2
						c-0.2,0.2-0.4,0.4-0.5,0.6C69.1,74.4,69.1,74.6,69.2,74.8 M71.1,74.5c-0.1,0.2-0.3,0.5-0.5,0.7c-0.2,0.3-0.4,0.6-0.4,0.7
						c0,0.1,0,0.3,0.1,0.4c0.1,0.1,0.2,0.2,0.4,0.2c0.1,0,0.3-0.1,0.5-0.2c0.2-0.1,0.3-0.3,0.4-0.5c0.1-0.2,0.1-0.4,0.1-0.5
						c0-0.2-0.1-0.3-0.3-0.5L71.1,74.5z"/>
					<path class="st0" d="M71.2,71l1.2-1.4l0.6,0.5c-0.1-0.4-0.1-0.8,0-1.1c0.1-0.3,0.2-0.6,0.5-0.9c0.3-0.4,0.7-0.6,1.2-0.6
						c0.4,0,0.9,0.2,1.4,0.6l2.4,2.1l-1.3,1.5l-2.1-1.8c-0.2-0.2-0.4-0.3-0.6-0.3c-0.2,0-0.3,0.1-0.5,0.2c-0.2,0.2-0.2,0.4-0.2,0.6
						c0,0.2,0.2,0.5,0.6,0.8l1.8,1.6L75,74.3L71.2,71z"/>
					<path class="st0" d="M77.2,66l-1.1,1.5c-0.2-0.2-0.4-0.4-0.5-0.6c-0.1-0.2-0.1-0.5-0.1-0.7c0-0.2,0.1-0.5,0.2-0.7
						c0.1-0.3,0.3-0.6,0.4-0.9c0.3-0.5,0.6-0.9,0.8-1.2c0.2-0.3,0.5-0.5,0.8-0.6c0.2-0.1,0.4-0.1,0.7,0c0.3,0.1,0.5,0.1,0.7,0.3
						l1.9,1.1c0.2,0.1,0.4,0.2,0.5,0.2c0.1,0,0.3,0.1,0.5,0.1L81.1,66c-0.1,0-0.3,0-0.3,0c-0.1,0-0.2-0.1-0.3-0.1
						c0.1,0.3,0.1,0.6,0.1,0.9c-0.1,0.4-0.2,0.7-0.4,1.1c-0.3,0.5-0.7,0.8-1.1,1c-0.4,0.1-0.8,0.1-1.1-0.1c-0.3-0.2-0.5-0.5-0.6-0.8
						c-0.1-0.3,0-0.8,0.2-1.4c0.2-0.7,0.4-1.2,0.4-1.4c0.1-0.2,0.1-0.5,0.1-0.7c-0.2-0.1-0.4-0.2-0.5-0.1c-0.1,0-0.3,0.2-0.4,0.4
						c-0.2,0.3-0.2,0.5-0.2,0.7C77,65.6,77,65.8,77.2,66 M78.9,65c-0.1,0.3-0.1,0.6-0.2,0.8c-0.1,0.4-0.1,0.7-0.1,0.8
						c0,0.1,0.1,0.3,0.2,0.3c0.1,0.1,0.3,0.1,0.4,0.1c0.1,0,0.3-0.2,0.4-0.3c0.1-0.2,0.2-0.4,0.2-0.6c0-0.2,0-0.4-0.1-0.5
						c-0.1-0.1-0.2-0.3-0.4-0.4L78.9,65z"/>
					<path class="st0" d="M76,60.6l0.8-1.8l1.2,0.5l-0.8,1.8L76,60.6z M77.8,61.4l0.8-1.8l4.7,2l-0.8,1.8L77.8,61.4z"/>
					<path class="st0" d="M82.3,60.2l0.4-1.9c0.2,0,0.4-0.1,0.6-0.2c0.1-0.1,0.2-0.3,0.3-0.5c0.1-0.2,0.1-0.5,0-0.6
						c0-0.1-0.1-0.2-0.3-0.2c-0.1,0-0.3,0-0.4,0.1c-0.1,0.1-0.2,0.3-0.4,0.7c-0.3,0.6-0.5,1-0.7,1.3c-0.2,0.2-0.4,0.4-0.7,0.5
						c-0.3,0.1-0.6,0.1-0.9,0c-0.3-0.1-0.6-0.3-0.7-0.5c-0.2-0.3-0.3-0.6-0.3-0.9c0-0.4,0-0.8,0.2-1.4c0.2-0.6,0.3-1,0.5-1.2
						c0.2-0.3,0.4-0.4,0.6-0.6c0.2-0.1,0.5-0.2,0.9-0.2l-0.3,1.8c-0.2,0-0.3,0-0.4,0.1c-0.1,0.1-0.2,0.3-0.3,0.5
						c-0.1,0.2-0.1,0.4,0,0.5c0,0.1,0.1,0.2,0.2,0.2c0.1,0,0.2,0,0.3-0.1c0.1-0.1,0.2-0.4,0.4-0.7c0.2-0.6,0.5-1,0.7-1.3
						c0.2-0.3,0.5-0.4,0.7-0.5c0.3-0.1,0.6-0.1,0.8,0c0.3,0.1,0.5,0.2,0.7,0.5c0.2,0.2,0.3,0.6,0.4,1c0.1,0.4,0,0.9-0.2,1.6
						c-0.3,0.9-0.6,1.5-0.9,1.8C83.2,60.1,82.8,60.3,82.3,60.2"/>
					<path class="st0" d="M84.1,48.6l-0.5,3.8c0.3,0,0.6,0,0.7-0.2c0.2-0.2,0.4-0.4,0.4-0.7c0-0.2,0-0.4-0.1-0.6
						c0-0.1-0.1-0.2-0.3-0.4l0.4-1.9c0.5,0.4,0.8,0.8,0.9,1.2c0.2,0.4,0.2,1,0.1,1.8c-0.1,0.7-0.3,1.2-0.5,1.5
						c-0.2,0.4-0.6,0.6-1,0.8c-0.4,0.2-0.9,0.3-1.5,0.2c-0.8-0.1-1.4-0.4-1.8-1c-0.4-0.6-0.6-1.3-0.4-2.2c0.1-0.7,0.3-1.3,0.6-1.7
						c0.3-0.4,0.6-0.7,1.1-0.8c0.4-0.2,1-0.2,1.7-0.1L84.1,48.6z M82.9,50.4c-0.4,0-0.7,0.1-0.8,0.2c-0.2,0.1-0.3,0.3-0.3,0.6
						c0,0.3,0,0.6,0.3,0.8c0.1,0.1,0.4,0.2,0.6,0.3L82.9,50.4z"/>
					<polygon class="st0" points="65.2,20.3 64.8,18.7 63.3,19 63.7,20.6 					"/>
				</g>
			</g>
		</g>
	</g>
</g>
</svg>
