<svg width="100" height="53" viewBox="0 0 100 53" fill="none" xmlns="http://www.w3.org/2000/svg">
<path d="M3.36395 42.4432C3.59257 42.4432 3.82118 42.4105 4.03347 42.3452C4.26209 42.2799 4.45805 42.1819 4.63768 42.0676C4.81731 41.9369 4.94794 41.79 5.06225 41.6103C5.17656 41.4307 5.22555 41.2184 5.22555 40.9898C5.22555 40.7122 5.16023 40.4509 5.01326 40.2386C4.86629 40.01 4.67034 39.8141 4.44172 39.6344C4.19677 39.4548 3.93549 39.2752 3.62523 39.1119C3.31496 38.9486 3.00469 38.7853 2.69442 38.622C2.38416 38.4587 2.07389 38.2954 1.76362 38.1158C1.45336 37.9361 1.19208 37.7402 0.947131 37.5115C0.702183 37.2829 0.522555 37.038 0.375587 36.7767C0.228618 36.4991 0.163298 36.1888 0.163298 35.8459C0.163298 35.4866 0.228618 35.1601 0.359257 34.8661C0.489895 34.5558 0.685854 34.2946 0.947131 34.0823C1.20841 33.8537 1.51868 33.6904 1.89426 33.5597C2.26985 33.4291 2.69442 33.3638 3.18432 33.3638C3.62523 33.3638 4.01714 33.4128 4.36007 33.5107C4.703 33.6087 5.01326 33.7394 5.27454 33.919C5.53582 34.0986 5.74811 34.3272 5.94406 34.5885C6.12369 34.8498 6.27066 35.1601 6.38497 35.503L5.58481 35.8622C5.48683 35.5846 5.37252 35.3234 5.22555 35.0784C5.07858 34.8498 4.91528 34.6375 4.703 34.4742C4.50704 34.3109 4.27842 34.1803 4.01714 34.0823C3.75586 33.9843 3.46193 33.9516 3.13533 33.9516C2.84139 33.9516 2.58012 33.9843 2.36783 34.066C2.15554 34.1476 1.95958 34.2619 1.81261 34.3926C1.66564 34.5232 1.55134 34.6702 1.48602 34.8335C1.4207 34.9968 1.37171 35.1601 1.37171 35.3397C1.37171 35.5846 1.45336 35.7969 1.60032 36.0092C1.74729 36.2052 1.94325 36.4011 2.1882 36.5807C2.43315 36.7604 2.71075 36.94 3.02102 37.1033C3.33129 37.2666 3.65789 37.4462 3.98448 37.6095C4.31108 37.7892 4.63768 37.9688 4.94794 38.1484C5.25821 38.328 5.53582 38.5403 5.78077 38.7526C6.02571 38.9812 6.22167 39.2099 6.36864 39.4711C6.51561 39.7324 6.59726 40.0263 6.59726 40.3529C6.59726 40.7285 6.53194 41.0715 6.38497 41.3817C6.238 41.7083 6.04204 41.9859 5.76444 42.2309C5.48683 42.4758 5.1439 42.6555 4.71933 42.8024C4.31108 42.9494 3.82118 43.0147 3.2823 43.0147C2.84139 43.0147 2.43315 42.9657 2.09022 42.8677C1.74729 42.7698 1.43703 42.6228 1.15942 42.4432C0.898142 42.2635 0.669524 42.0349 0.473566 41.7573C0.277607 41.496 0.130639 41.1858 0 40.8428L0.832822 40.4999C0.930801 40.8102 1.06144 41.0715 1.22474 41.3164C1.38804 41.5614 1.584 41.7573 1.79628 41.9206C2.00857 42.0839 2.25352 42.2145 2.53113 42.2962C2.77607 42.3942 3.07001 42.4432 3.36395 42.4432Z" fill="#082161"/>
<path d="M16.0034 33.5598V34.164H12.6558V42.8188H11.1045V34.164H7.75684V33.5598H16.0034Z" fill="#082161"/>
<path d="M21.4084 43.0311C20.6899 43.0311 20.0204 42.9005 19.3998 42.6555C18.7793 42.3942 18.2404 42.0513 17.7832 41.6104C17.3259 41.1695 16.9667 40.6469 16.7054 40.0591C16.4441 39.4712 16.3135 38.8343 16.3135 38.1648C16.3135 37.7239 16.3788 37.2993 16.4931 36.8911C16.6074 36.4828 16.787 36.1072 16.9993 35.748C17.2116 35.3887 17.4892 35.0785 17.7832 34.7845C18.0934 34.4906 18.4364 34.2456 18.8119 34.0333C19.1875 33.8211 19.5958 33.6741 20.0367 33.5598C20.4776 33.4455 20.9348 33.3965 21.4084 33.3965C21.882 33.3965 22.3392 33.4455 22.7801 33.5598C23.221 33.6741 23.6292 33.8374 24.0048 34.0333C24.3804 34.2456 24.7233 34.4906 25.0336 34.7845C25.3439 35.0785 25.6052 35.4051 25.8174 35.748C26.0461 36.1072 26.2094 36.4828 26.3237 36.8911C26.438 37.2993 26.5033 37.7239 26.5033 38.1648C26.5033 38.6057 26.438 39.0466 26.3237 39.4549C26.2094 39.8631 26.0297 40.255 25.8174 40.6306C25.5888 40.9899 25.3276 41.3165 25.0336 41.6267C24.7233 41.9207 24.3804 42.1819 24.0048 42.3942C23.6292 42.6065 23.221 42.7698 22.7801 42.8841C22.3555 42.9658 21.8983 43.0311 21.4084 43.0311ZM21.4084 42.5739C21.9309 42.5739 22.4045 42.4596 22.8128 42.2473C23.221 42.0186 23.5639 41.7247 23.8415 41.3165C24.1191 40.9245 24.3314 40.451 24.4784 39.9121C24.6254 39.3732 24.6907 38.7853 24.6907 38.1485C24.6907 37.5116 24.6254 36.9237 24.4784 36.4012C24.3314 35.8786 24.1191 35.4214 23.8415 35.0295C23.5639 34.6539 23.221 34.3436 22.8128 34.1313C22.4045 33.919 21.9309 33.8211 21.4084 33.8211C20.8695 33.8211 20.3959 33.919 19.9877 34.1313C19.5794 34.3436 19.2365 34.6376 18.9589 35.0295C18.6813 35.4051 18.469 35.8623 18.3384 36.4012C18.1914 36.9237 18.1261 37.5116 18.1261 38.1485C18.1261 38.7853 18.1914 39.3732 18.3384 39.9121C18.4853 40.451 18.6813 40.9245 18.9589 41.3165C19.2365 41.7084 19.5794 42.0186 19.9877 42.2473C20.3959 42.4596 20.8695 42.5739 21.4084 42.5739Z" fill="#082161"/>
<path d="M28.4633 33.5598H30.0147V39.5692C30.0147 39.9611 30.08 40.3367 30.2106 40.6796C30.3413 41.0226 30.5372 41.3328 30.7822 41.5941C31.0271 41.8554 31.3374 42.0677 31.6966 42.2146C32.0559 42.3616 32.4478 42.4433 32.8887 42.4433C33.3296 42.4433 33.7215 42.3616 34.0808 42.2146C34.44 42.0677 34.734 41.8554 34.9789 41.5941C35.2239 41.3328 35.4198 41.0226 35.5505 40.6796C35.6811 40.3367 35.7464 39.9611 35.7464 39.5692V33.5598H36.4323V39.5692C36.4323 40.0428 36.3506 40.4837 36.2037 40.9082C36.0567 41.3328 35.8118 41.6921 35.4852 42.0023C35.1586 42.3126 34.734 42.5576 34.2278 42.7535C33.7215 42.9331 33.101 43.0311 32.3825 43.0311C31.7456 43.0311 31.1741 42.9331 30.6842 42.7535C30.1943 42.5739 29.786 42.3126 29.4431 42.0023C29.1165 41.6921 28.8552 41.3165 28.6919 40.8919C28.5286 40.4673 28.4307 40.0101 28.4307 39.5202V33.5598H28.4633Z" fill="#082161"/>
<path d="M40.3834 38.3771V42.8189H38.832V33.5762H40.3834V37.7893H45.021V33.5762H46.5724V42.8189H45.021V38.3771H40.3834Z" fill="#082161"/>
<path d="M52.0264 33.5598H55.7496C56.2395 33.5598 56.6967 33.6088 57.1049 33.7231C57.5132 33.8374 57.8724 33.9844 58.1664 34.1803C58.4603 34.3763 58.6889 34.6213 58.8522 34.8989C59.0155 35.1765 59.0972 35.4867 59.0972 35.8133C59.0972 36.0746 59.0645 36.3032 59.0155 36.4992C58.9665 36.6951 58.8686 36.8911 58.7379 37.0544C58.6073 37.2177 58.4277 37.381 58.2154 37.528C58.0031 37.6749 57.7255 37.8382 57.3989 37.9852V38.0179C57.7255 38.0669 58.0194 38.1648 58.297 38.2791C58.5583 38.4098 58.7869 38.5567 58.9829 38.7527C59.1788 38.9487 59.3095 39.1773 59.4238 39.4222C59.5218 39.6835 59.5708 39.9611 59.5708 40.2714C59.5708 40.6143 59.4891 40.9409 59.3421 41.2512C59.1952 41.5614 58.9829 41.8227 58.6889 42.0513C58.4113 42.28 58.0684 42.4596 57.6765 42.5902C57.2846 42.7209 56.8273 42.7862 56.3374 42.7862H52.0264V33.5598ZM53.5777 37.7239H55.5536C55.8639 37.7239 56.1415 37.6749 56.3864 37.5933C56.6314 37.5116 56.8273 37.381 57.007 37.234C57.1703 37.0707 57.3009 36.8911 57.3826 36.6788C57.4642 36.4665 57.5132 36.2216 57.5132 35.9766C57.5132 35.699 57.4642 35.4541 57.3662 35.2418C57.2682 35.0132 57.1049 34.8335 56.8927 34.6702C56.6804 34.5069 56.4028 34.3926 56.0762 34.311C55.7496 34.2293 55.3413 34.1803 54.8841 34.1803H53.594V37.7239H53.5777ZM53.5777 42.133H55.2597C55.7169 42.133 56.1088 42.084 56.4354 42.0023C56.762 41.9207 57.0396 41.7901 57.2519 41.6431C57.4642 41.4798 57.6275 41.3002 57.7255 41.0879C57.8235 40.8756 57.8888 40.6306 57.8888 40.3694C57.8888 40.0754 57.8398 39.7978 57.7418 39.5529C57.6438 39.3079 57.4969 39.0793 57.2846 38.8997C57.0723 38.72 56.7947 38.5731 56.4518 38.4588C56.1088 38.3445 55.6843 38.2955 55.1944 38.2955H53.5614V42.133H53.5777Z" fill="#082161"/>
<path d="M67.8998 33.5598V34.164H63.0172V37.4626H66.2831V38.0669H63.0172V42.2146H67.8998V42.8188H61.4658V33.5761H67.8998V33.5598Z" fill="#082161"/>
<path d="M69.7285 33.5598H71.2799V42.8025H69.7285V33.5598Z" fill="#082161"/>
<path d="M73.8113 33.5598H77.0119C77.5671 33.5598 78.057 33.6251 78.4653 33.7394C78.8898 33.8538 79.2328 34.017 79.5104 34.2457C79.788 34.458 80.0003 34.7192 80.1472 35.0132C80.2942 35.3071 80.3595 35.6337 80.3595 35.9766C80.3595 36.2706 80.3105 36.5318 80.1962 36.7931C80.0819 37.0381 79.9349 37.2667 79.739 37.479C79.543 37.6749 79.2981 37.8546 79.0205 38.0015C78.7429 38.1485 78.4326 38.2628 78.106 38.3445L81.4699 42.8352H79.6573L76.4404 38.4914H75.3463V42.8352H73.7949V33.5598H73.8113ZM75.3626 38.0015H76.2607C76.6037 38.0015 76.9303 37.9525 77.2242 37.8546C77.5181 37.7566 77.7794 37.6259 77.9917 37.4626C78.204 37.2993 78.3836 37.0871 78.4979 36.8421C78.6122 36.5972 78.6775 36.3359 78.6775 36.0256C78.6775 35.748 78.6286 35.4867 78.5306 35.2581C78.4326 35.0295 78.302 34.8335 78.1223 34.6539C77.9427 34.4906 77.7467 34.36 77.5018 34.262C77.2569 34.164 76.9956 34.115 76.718 34.115H75.3463V38.0015H75.3626Z" fill="#082161"/>
<path d="M82.3842 33.5598H83.9356V39.5692C83.9356 39.9611 84.0009 40.3367 84.1315 40.6796C84.2622 41.0226 84.4581 41.3328 84.7031 41.5941C84.948 41.8554 85.2583 42.0677 85.6175 42.2146C85.9768 42.3616 86.3687 42.4433 86.8096 42.4433C87.2505 42.4433 87.6424 42.3616 88.0017 42.2146C88.3609 42.0677 88.6549 41.8554 88.8998 41.5941C89.1448 41.3328 89.3407 41.0226 89.4714 40.6796C89.602 40.3367 89.6673 39.9611 89.6673 39.5692V33.5598H90.3532V39.5692C90.3532 40.0428 90.2715 40.4837 90.1246 40.9082C89.9776 41.3328 89.7327 41.6921 89.4061 42.0023C89.0795 42.3126 88.6549 42.5576 88.1487 42.7535C87.6424 42.9331 87.0219 43.0311 86.3034 43.0311C85.6665 43.0311 85.095 42.9331 84.6051 42.7535C84.1152 42.5739 83.7069 42.3126 83.364 42.0023C83.0374 41.6921 82.7761 41.3165 82.6128 40.8919C82.4495 40.4673 82.3516 40.0101 82.3516 39.5202V33.5598H82.3842Z" fill="#082161"/>
<path d="M100.004 33.5598V34.164H96.6568V42.8188H95.1054V34.164H91.7578V33.5598H100.004Z" fill="#082161"/>
<path d="M29.8349 51.5063C29.8349 51.5879 29.8513 51.6532 29.8676 51.6859C29.8839 51.7185 29.9329 51.7349 29.9982 51.7349C30.0146 51.7349 30.0472 51.7349 30.0636 51.7349C30.0962 51.7349 30.1289 51.7349 30.1615 51.7185V52.1921C30.1452 52.1921 30.1125 52.2084 30.0636 52.2248C30.0146 52.2411 29.9819 52.2411 29.9492 52.2574C29.9166 52.2574 29.8676 52.2738 29.8349 52.2738C29.8023 52.2738 29.7533 52.2738 29.737 52.2738C29.59 52.2738 29.4757 52.2411 29.394 52.1921C29.2961 52.1431 29.2471 52.0451 29.2144 51.8982C29.0838 52.0288 28.9041 52.1268 28.7082 52.1921C28.5122 52.2574 28.3163 52.2901 28.1366 52.2901C27.9897 52.2901 27.859 52.2738 27.7284 52.2248C27.5978 52.1921 27.4834 52.1268 27.3855 52.0615C27.2875 51.9798 27.2058 51.8982 27.1568 51.7839C27.0915 51.6696 27.0752 51.5389 27.0752 51.3756C27.0752 51.1797 27.1079 51.0327 27.1732 50.902C27.2385 50.7877 27.3365 50.6898 27.4508 50.6244C27.5651 50.5591 27.6957 50.5101 27.8427 50.4775C27.9897 50.4448 28.1366 50.4285 28.2673 50.4122C28.3979 50.3958 28.5122 50.3632 28.6265 50.3632C28.7408 50.3468 28.8388 50.3305 28.9205 50.3142C29.0021 50.2978 29.0674 50.2489 29.1328 50.1999C29.1817 50.1509 29.2144 50.0692 29.2144 49.9712C29.2144 49.8896 29.1981 49.8079 29.1491 49.759C29.1001 49.71 29.0511 49.661 28.9858 49.6283C28.9205 49.5957 28.8552 49.5793 28.7735 49.563C28.6919 49.5467 28.6265 49.5467 28.5612 49.5467C28.3653 49.5467 28.202 49.5793 28.0876 49.661C27.9733 49.7426 27.8917 49.8733 27.8754 50.0366H27.1895C27.2058 49.8406 27.2548 49.6773 27.3365 49.5303C27.4181 49.3997 27.5324 49.2854 27.6631 49.2037C27.7937 49.1221 27.9407 49.0731 28.104 49.0404C28.2673 49.0078 28.4306 48.9915 28.6102 48.9915C28.7572 48.9915 28.9205 49.0078 29.0674 49.0404C29.2144 49.0731 29.345 49.1221 29.4757 49.2037C29.59 49.2691 29.688 49.367 29.7696 49.4814C29.8349 49.5957 29.8839 49.7426 29.8839 49.9059V51.5063H29.8349ZM29.1491 50.6408C29.0511 50.7061 28.9205 50.7551 28.7572 50.7714C28.6102 50.7877 28.4469 50.8041 28.2999 50.8367C28.2346 50.8531 28.153 50.8694 28.0876 50.8857C28.0223 50.902 27.957 50.9347 27.908 50.9837C27.859 51.0164 27.81 51.0653 27.7774 51.1307C27.7447 51.196 27.7284 51.2613 27.7284 51.3593C27.7284 51.4409 27.7447 51.5063 27.7937 51.5552C27.8427 51.6042 27.8917 51.6532 27.957 51.6859C28.0223 51.7185 28.0876 51.7349 28.1693 51.7512C28.2509 51.7675 28.3163 51.7675 28.3653 51.7675C28.4469 51.7675 28.5286 51.7512 28.6102 51.7349C28.6919 51.7185 28.7898 51.6859 28.8552 51.6369C28.9368 51.5879 29.0021 51.5226 29.0511 51.4573C29.1001 51.3756 29.1328 51.294 29.1328 51.1797V50.6408H29.1491Z" fill="#F9725C"/>
<path d="M32.3003 51.2126C32.3166 51.4085 32.3983 51.5555 32.5289 51.6372C32.6595 51.7188 32.8228 51.7515 33.0025 51.7515C33.0678 51.7515 33.1331 51.7515 33.2147 51.7351C33.2964 51.7188 33.378 51.7025 33.4434 51.6698C33.5087 51.6372 33.574 51.6045 33.623 51.5392C33.672 51.4902 33.6883 51.4085 33.6883 51.3269C33.6883 51.2452 33.6557 51.1636 33.5903 51.1146C33.525 51.0656 33.4597 51.0166 33.3617 50.984C33.2637 50.9513 33.1658 50.9186 33.0351 50.9023C32.9208 50.886 32.7902 50.8533 32.6595 50.8207C32.5289 50.788 32.4146 50.7554 32.2839 50.7227C32.1696 50.69 32.0553 50.6247 31.9573 50.5594C31.8594 50.4941 31.794 50.3961 31.7287 50.2981C31.6797 50.1838 31.6471 50.0532 31.6471 49.9062C31.6471 49.7429 31.6961 49.5959 31.7777 49.4816C31.8594 49.3673 31.9573 49.2693 32.088 49.204C32.2186 49.1387 32.3493 49.0897 32.5126 49.057C32.6595 49.0244 32.8228 49.0081 32.9535 49.0081C33.1168 49.0081 33.2637 49.0244 33.4107 49.057C33.5577 49.0897 33.6883 49.1387 33.8026 49.2203C33.9169 49.302 34.0149 49.4 34.0966 49.5143C34.1782 49.6449 34.2272 49.7919 34.2435 49.9552H33.525C33.4924 49.7919 33.4107 49.6776 33.2964 49.6286C33.1821 49.5796 33.0351 49.5469 32.8881 49.5469C32.8392 49.5469 32.7902 49.5469 32.7085 49.5633C32.6432 49.5633 32.5779 49.5796 32.5289 49.6123C32.4636 49.6286 32.4146 49.6612 32.3819 49.7102C32.3493 49.7592 32.3166 49.8082 32.3166 49.8735C32.3166 49.9552 32.3493 50.0205 32.3983 50.0858C32.4636 50.1348 32.5289 50.1838 32.6269 50.2165C32.7248 50.2491 32.8228 50.2818 32.9535 50.2981C33.0678 50.3144 33.1984 50.3471 33.3291 50.3798C33.4597 50.4124 33.574 50.4451 33.7046 50.4777C33.8189 50.5104 33.9333 50.5757 34.0312 50.641C34.1292 50.7064 34.1945 50.788 34.2599 50.9023C34.3252 51.0003 34.3415 51.1309 34.3415 51.2942C34.3415 51.4739 34.2925 51.6372 34.2109 51.7678C34.1292 51.8984 34.0149 51.9964 33.8843 52.0781C33.7536 52.1597 33.6067 52.2087 33.4434 52.2577C33.2801 52.2904 33.1168 52.3067 32.9535 52.3067C32.7575 52.3067 32.5779 52.2904 32.4146 52.2414C32.2513 52.1924 32.1043 52.1271 31.9737 52.0454C31.843 51.9474 31.7614 51.8495 31.6797 51.7025C31.6144 51.5718 31.5654 51.4085 31.5654 51.2289H32.3003V51.2126Z" fill="#F9725C"/>
<path d="M36.6284 51.2126C36.6447 51.4085 36.7264 51.5555 36.857 51.6372C36.9877 51.7188 37.151 51.7515 37.3306 51.7515C37.3959 51.7515 37.4612 51.7515 37.5429 51.7351C37.6245 51.7188 37.7062 51.7025 37.7715 51.6698C37.8368 51.6372 37.9021 51.6045 37.9511 51.5392C38.0001 51.4902 38.0164 51.4085 38.0164 51.3269C38.0164 51.2452 37.9838 51.1636 37.9185 51.1146C37.8531 51.0656 37.7878 51.0166 37.6898 50.984C37.5919 50.9513 37.4939 50.9186 37.3632 50.9023C37.2489 50.886 37.1183 50.8533 36.9877 50.8207C36.857 50.788 36.7427 50.7554 36.6121 50.7227C36.4978 50.69 36.3835 50.6247 36.2855 50.5594C36.1875 50.4941 36.1222 50.3961 36.0569 50.2981C36.0079 50.1838 35.9752 50.0532 35.9752 49.9062C35.9752 49.7429 36.0242 49.5959 36.1058 49.4816C36.1875 49.3673 36.2855 49.2693 36.4161 49.204C36.5468 49.1387 36.6774 49.0897 36.8407 49.057C36.9877 49.0244 37.151 49.0081 37.2816 49.0081C37.4449 49.0081 37.5919 49.0244 37.7388 49.057C37.8858 49.0897 38.0164 49.1387 38.1307 49.2203C38.2451 49.302 38.343 49.4 38.4247 49.5143C38.5063 49.6449 38.5553 49.7919 38.5717 49.9552H37.8531C37.8205 49.7919 37.7388 49.6776 37.6245 49.6286C37.5102 49.5796 37.3632 49.5469 37.2163 49.5469C37.1673 49.5469 37.1183 49.5469 37.0366 49.5633C36.9713 49.5633 36.906 49.5796 36.857 49.6123C36.7917 49.6286 36.7427 49.6612 36.71 49.7102C36.6774 49.7592 36.6447 49.8082 36.6447 49.8735C36.6447 49.9552 36.6774 50.0205 36.7264 50.0858C36.7917 50.1348 36.857 50.1838 36.955 50.2165C37.053 50.2491 37.151 50.2818 37.2816 50.2981C37.3959 50.3144 37.5265 50.3471 37.6572 50.3798C37.7878 50.4124 37.9021 50.4451 38.0328 50.4777C38.1471 50.5104 38.2614 50.5757 38.3594 50.641C38.4573 50.7064 38.5227 50.788 38.588 50.9023C38.6533 51.0003 38.6696 51.1309 38.6696 51.2942C38.6696 51.4739 38.6206 51.6372 38.539 51.7678C38.4573 51.8984 38.343 51.9964 38.2124 52.0781C38.0818 52.1597 37.9348 52.2087 37.7715 52.2577C37.6082 52.2904 37.4449 52.3067 37.2816 52.3067C37.0856 52.3067 36.906 52.2904 36.7427 52.2414C36.5794 52.1924 36.4324 52.1271 36.3018 52.0454C36.1712 51.9474 36.0895 51.8495 36.0079 51.7025C35.9425 51.5718 35.8936 51.4085 35.8936 51.2289H36.6284V51.2126Z" fill="#F9725C"/>
<path d="M41.8694 52.2901C41.6245 52.2901 41.3959 52.2411 41.1999 52.1594C41.0039 52.0778 40.8406 51.9635 40.71 51.8165C40.5794 51.6695 40.4651 51.5062 40.3997 51.2939C40.3344 51.098 40.3018 50.8694 40.3018 50.6244C40.3018 50.3795 40.3344 50.1672 40.3997 49.9712C40.4651 49.7753 40.5794 49.5956 40.71 49.4487C40.8406 49.3017 41.0039 49.1874 41.1999 49.1057C41.3959 49.0241 41.6245 48.9751 41.8694 48.9751C42.1144 48.9751 42.343 49.0241 42.5389 49.1057C42.7349 49.1874 42.8982 49.3017 43.0288 49.4487C43.1595 49.5956 43.2738 49.7589 43.3391 49.9712C43.4044 50.1672 43.4371 50.3958 43.4371 50.6244C43.4371 50.8694 43.4044 51.0817 43.3391 51.2939C43.2738 51.4899 43.1595 51.6695 43.0288 51.8165C42.8982 51.9635 42.7349 52.0778 42.5389 52.1594C42.343 52.2411 42.1144 52.2901 41.8694 52.2901ZM41.8694 51.7512C42.0164 51.7512 42.147 51.7185 42.2613 51.6532C42.3756 51.5879 42.4736 51.5062 42.5389 51.4082C42.6043 51.3103 42.6696 51.1796 42.7022 51.049C42.7349 50.9184 42.7512 50.7877 42.7512 50.6407C42.7512 50.5101 42.7349 50.3795 42.7022 50.2488C42.6696 50.1182 42.6206 50.0039 42.5389 49.8896C42.4736 49.7916 42.3756 49.7099 42.2613 49.6446C42.147 49.5793 42.0164 49.5466 41.8694 49.5466C41.7225 49.5466 41.5918 49.5793 41.4775 49.6446C41.3632 49.7099 41.2652 49.7916 41.1999 49.8896C41.1346 49.9875 41.0693 50.1019 41.0366 50.2488C41.0039 50.3795 40.9876 50.5101 40.9876 50.6407C40.9876 50.7714 41.0039 50.9184 41.0366 51.049C41.0693 51.1796 41.1183 51.2939 41.1999 51.4082C41.2652 51.5062 41.3632 51.6042 41.4775 51.6532C41.5918 51.7185 41.7225 51.7512 41.8694 51.7512Z" fill="#F9725C"/>
<path d="M47.3241 50.1348C47.2914 49.9389 47.2261 49.7919 47.0955 49.6939C46.9648 49.5959 46.8015 49.5469 46.6219 49.5469C46.5403 49.5469 46.4423 49.5633 46.3443 49.5959C46.2463 49.6286 46.1484 49.6776 46.0667 49.7592C45.9851 49.8409 45.9197 49.9552 45.8544 50.1022C45.8054 50.2491 45.7728 50.4451 45.7728 50.6737C45.7728 50.8043 45.7891 50.935 45.8218 51.0656C45.8544 51.1963 45.9034 51.3106 45.9687 51.4085C46.034 51.5065 46.1157 51.5882 46.23 51.6535C46.328 51.7188 46.4586 51.7515 46.6056 51.7515C46.8015 51.7515 46.9648 51.6861 47.0955 51.5718C47.2261 51.4412 47.3078 51.2779 47.3404 51.0493H48.0263C47.961 51.4575 47.814 51.7678 47.569 51.9801C47.3241 52.1924 46.9975 52.3067 46.6056 52.3067C46.3606 52.3067 46.1484 52.2577 45.9524 52.176C45.7728 52.0944 45.6095 51.9801 45.4788 51.8331C45.3482 51.6861 45.2502 51.5229 45.1849 51.3269C45.1196 51.1309 45.0869 50.9186 45.0869 50.69C45.0869 50.4614 45.1196 50.2328 45.1849 50.0368C45.2502 49.8245 45.3482 49.6613 45.4788 49.498C45.6095 49.351 45.7728 49.2367 45.9524 49.1387C46.1484 49.057 46.3606 49.0081 46.6219 49.0081C46.8015 49.0081 46.9812 49.0244 47.1445 49.0734C47.3078 49.1224 47.4547 49.1877 47.5854 49.2857C47.716 49.3836 47.814 49.498 47.8956 49.6286C47.9773 49.7756 48.0263 49.9389 48.0426 50.1348H47.3241Z" fill="#F9725C"/>
<path d="M49.79 47.8975H50.4759V48.5507H49.79V47.8975ZM49.79 49.0895H50.4759V52.2085H49.79V49.0895Z" fill="#F9725C"/>
<path d="M55.0322 51.5063C55.0322 51.5879 55.0485 51.6532 55.0649 51.6859C55.0812 51.7185 55.1302 51.7349 55.1955 51.7349C55.2118 51.7349 55.2445 51.7349 55.2608 51.7349C55.2935 51.7349 55.3261 51.7349 55.3588 51.7185V52.1921C55.3425 52.1921 55.3098 52.2084 55.2608 52.2248C55.2282 52.2411 55.1792 52.2411 55.1465 52.2574C55.1138 52.2574 55.0649 52.2738 55.0322 52.2738C54.9995 52.2738 54.9506 52.2738 54.9342 52.2738C54.7873 52.2738 54.6729 52.2411 54.5913 52.1921C54.4933 52.1431 54.4443 52.0451 54.4117 51.8982C54.281 52.0288 54.1014 52.1268 53.9054 52.1921C53.7095 52.2574 53.5135 52.2901 53.3339 52.2901C53.1869 52.2901 53.0563 52.2738 52.9257 52.2248C52.795 52.1921 52.6807 52.1268 52.5827 52.0615C52.4847 51.9961 52.4031 51.8982 52.3541 51.7839C52.2888 51.6696 52.2725 51.5389 52.2725 51.3756C52.2725 51.1797 52.3051 51.0327 52.3704 50.902C52.4358 50.7877 52.5337 50.6898 52.648 50.6244C52.7624 50.5591 52.893 50.5101 53.04 50.4775C53.1869 50.4448 53.3339 50.4285 53.4645 50.4122C53.5952 50.3958 53.7095 50.3632 53.8238 50.3632C53.9381 50.3468 54.0361 50.3305 54.1177 50.3142C54.1994 50.2978 54.2647 50.2489 54.33 50.1999C54.379 50.1509 54.4117 50.0692 54.4117 49.9712C54.4117 49.8896 54.3953 49.8079 54.3463 49.759C54.2974 49.71 54.2484 49.661 54.183 49.6283C54.1177 49.5957 54.0524 49.5793 53.9708 49.563C53.8891 49.5467 53.8238 49.5467 53.7585 49.5467C53.5625 49.5467 53.3992 49.5793 53.2849 49.661C53.1543 49.7426 53.089 49.8733 53.0726 50.0366H52.3868C52.4031 49.8406 52.4521 49.6773 52.5337 49.5303C52.6154 49.3997 52.7297 49.2854 52.8603 49.2037C52.991 49.1221 53.1379 49.0731 53.3012 49.0404C53.4645 49.0078 53.6278 48.9915 53.8075 48.9915C53.9544 48.9915 54.1177 49.0078 54.2647 49.0404C54.4117 49.0731 54.5423 49.1221 54.6729 49.2037C54.7873 49.2691 54.8852 49.367 54.9669 49.4814C55.0322 49.5957 55.0812 49.7426 55.0812 49.9059V51.5063H55.0322ZM54.3463 50.6408C54.2484 50.7061 54.1177 50.7551 53.9544 50.7714C53.8075 50.7877 53.6442 50.8041 53.4972 50.8367C53.4319 50.8531 53.3502 50.8694 53.2849 50.8857C53.2196 50.902 53.1543 50.9347 53.1053 50.9837C53.0563 51.0164 53.0073 51.0653 52.9746 51.1307C52.942 51.196 52.9257 51.2613 52.9257 51.3593C52.9257 51.4409 52.942 51.5063 52.991 51.5552C53.04 51.6042 53.089 51.6532 53.1543 51.6859C53.2196 51.7185 53.2849 51.7349 53.3666 51.7512C53.4482 51.7675 53.5135 51.7675 53.5625 51.7675C53.6442 51.7675 53.7258 51.7512 53.8075 51.7349C53.8891 51.7185 53.9871 51.6859 54.0524 51.6369C54.1341 51.5879 54.1994 51.5226 54.2484 51.4573C54.2974 51.3756 54.33 51.294 54.33 51.1797V50.6408H54.3463Z" fill="#F9725C"/>
<path d="M56.665 49.0895H57.1876V48.1587H57.8734V49.0895H58.494V49.5957H57.8734V51.2614C57.8734 51.3267 57.8734 51.392 57.8898 51.441C57.8898 51.49 57.9061 51.539 57.9388 51.5716C57.9551 51.6043 57.9878 51.6369 58.0367 51.6533C58.0857 51.6696 58.1347 51.6859 58.2164 51.6859C58.2654 51.6859 58.3144 51.6859 58.3633 51.6859C58.4123 51.6859 58.4613 51.6696 58.5103 51.6696V52.1922C58.4287 52.1922 58.3633 52.2085 58.2817 52.2085C58.2164 52.2085 58.1347 52.2248 58.0531 52.2248C57.8734 52.2248 57.7265 52.2085 57.6122 52.1758C57.4979 52.1432 57.4162 52.0942 57.3509 52.0289C57.2856 51.9635 57.2529 51.8819 57.2203 51.7839C57.2039 51.6859 57.1876 51.5716 57.1876 51.441V49.5957H56.665V49.0895Z" fill="#F9725C"/>
<path d="M60.208 47.8975H60.8939V48.5507H60.208V47.8975ZM60.208 49.0895H60.8939V52.2085H60.208V49.0895Z" fill="#F9725C"/>
<path d="M64.2747 52.2901C64.0297 52.2901 63.8011 52.2411 63.6052 52.1594C63.4092 52.0778 63.2459 51.9635 63.1153 51.8165C62.9846 51.6695 62.8703 51.5062 62.805 51.2939C62.7397 51.098 62.707 50.8694 62.707 50.6244C62.707 50.3795 62.7397 50.1672 62.805 49.9712C62.8703 49.7753 62.9846 49.5956 63.1153 49.4487C63.2459 49.3017 63.4092 49.1874 63.6052 49.1057C63.8011 49.0241 64.0297 48.9751 64.2747 48.9751C64.5196 48.9751 64.7483 49.0241 64.9442 49.1057C65.1402 49.1874 65.3035 49.3017 65.4341 49.4487C65.5648 49.5956 65.6791 49.7589 65.7444 49.9712C65.8097 50.1672 65.8424 50.3958 65.8424 50.6244C65.8424 50.8694 65.8097 51.0817 65.7444 51.2939C65.6791 51.4899 65.5648 51.6695 65.4341 51.8165C65.3035 51.9635 65.1402 52.0778 64.9442 52.1594C64.7483 52.2411 64.536 52.2901 64.2747 52.2901ZM64.2747 51.7512C64.4217 51.7512 64.5523 51.7185 64.6666 51.6532C64.7809 51.5879 64.8789 51.5062 64.9442 51.4082C65.0095 51.3103 65.0749 51.1796 65.1075 51.049C65.1402 50.9184 65.1565 50.7877 65.1565 50.6407C65.1565 50.5101 65.1402 50.3795 65.1075 50.2488C65.0749 50.1182 65.0259 50.0039 64.9442 49.8896C64.8789 49.7916 64.7809 49.7099 64.6666 49.6446C64.5523 49.5793 64.4217 49.5466 64.2747 49.5466C64.1277 49.5466 63.9971 49.5793 63.8828 49.6446C63.7685 49.7099 63.6705 49.7916 63.6052 49.8896C63.5399 49.9875 63.4745 50.1019 63.4419 50.2488C63.4092 50.3795 63.3929 50.5101 63.3929 50.6407C63.3929 50.7714 63.4092 50.9184 63.4419 51.049C63.4745 51.1796 63.5235 51.2939 63.6052 51.4082C63.6705 51.5062 63.7685 51.6042 63.8828 51.6532C63.9971 51.7185 64.1277 51.7512 64.2747 51.7512Z" fill="#F9725C"/>
<path d="M67.6221 49.0897H68.2753V49.5469L68.2916 49.5633C68.3896 49.3836 68.5365 49.253 68.6998 49.155C68.8631 49.057 69.0591 49.0081 69.2551 49.0081C69.598 49.0081 69.8593 49.0897 70.0552 49.2693C70.2512 49.449 70.3492 49.7102 70.3492 50.0695V52.2087H69.6633V50.2491C69.6633 50.0042 69.598 49.8245 69.5 49.7102C69.402 49.5959 69.2551 49.5469 69.0428 49.5469C68.9285 49.5469 68.8141 49.5633 68.7325 49.6123C68.6345 49.6612 68.5692 49.7102 68.5039 49.7919C68.4386 49.8735 68.3896 49.9552 68.3569 50.0532C68.3243 50.1511 68.3079 50.2655 68.3079 50.3798V52.225H67.6221V49.0897Z" fill="#F9725C"/>
<path d="M47.8788 21.7206C46.703 23.0923 45.5109 24.4477 44.3352 25.8194C43.8943 26.3419 43.4534 26.5052 42.9308 25.9337C40.6446 23.5006 38.1135 21.2634 36.2519 18.4383C34.7659 16.1848 35.3211 13.8823 37.6236 12.3309C37.7543 12.233 37.8849 12.2166 38.0155 12.3146C38.9953 14.0456 39.8445 15.8419 41.1672 17.3769C42.9145 19.4181 45.168 20.5122 47.6338 21.345C47.7645 21.443 47.8461 21.5736 47.8788 21.7206Z" fill="#F9725C"/>
<path d="M39.8445 11.7268C40.9223 11.8411 41.8041 12.3147 42.5879 13.0332C43.2085 13.6047 43.8127 13.5721 44.5312 13.1312C47.1766 11.5145 48.4503 11.5635 49.9853 13.2945C51.6183 15.1234 51.5857 17.3116 49.8547 19.4672C49.5281 19.8591 49.1525 20.2183 48.7933 20.5776C48.7769 20.7409 48.679 20.8389 48.532 20.9042C45.3313 20.5613 43.2901 18.4547 41.5265 16.0869C40.6283 14.8785 39.7629 13.5557 39.7139 11.9228C39.7629 11.8574 39.7955 11.7921 39.8445 11.7268Z" fill="#F9715C"/>
<path d="M37.8686 12.4289C37.8033 12.38 37.7217 12.3473 37.6237 12.3473C37.0521 9.71819 36.6602 7.05642 36.3499 4.39466C36.2356 3.46386 36.3663 2.95763 37.493 2.95763C38.9301 2.9413 40.3834 2.6147 41.8205 2.66369C45.0374 2.79433 47.5196 5.81535 47.144 9.16297C46.899 8.5751 46.7194 8.11786 46.5071 7.66063C45.0211 4.50897 42.245 3.39854 39.0117 4.59062C38.4728 4.78657 38.4402 5.09684 38.5218 5.53775C38.8811 7.62797 38.9627 9.76718 39.8445 11.7431L39.7629 11.7104L39.6812 11.7268C39.2077 12.282 38.5545 12.4126 37.8686 12.4289Z" fill="#0B205E"/>
<path d="M50.4268 8.44449C54.3459 6.10932 58.1344 3.62718 62.2169 1.63494C63.3763 1.0634 64.5684 0.557171 65.8095 0.230574C66.2341 0.116265 66.8219 -0.242991 67.0832 0.263234C67.3608 0.818448 66.7566 1.14505 66.3647 1.43898C64.6011 2.79436 62.6741 3.92112 60.6329 4.80293C57.6935 6.07666 54.7052 7.20342 51.7495 8.3955C51.3086 8.57513 50.9167 8.73842 50.4268 8.44449Z" fill="#0B2062"/>
<path d="M52.5332 9.52223C56.3381 8.06887 60.0776 6.45222 64.1764 5.99498C65.0582 5.897 66.4136 5.53774 66.6585 6.45222C66.9361 7.51366 65.4828 7.6443 64.6989 7.98722C61.5309 9.35893 58.118 9.60388 54.7214 9.88148C53.9702 9.89781 53.1374 10.404 52.5332 9.52223Z" fill="#082161"/>
<path d="M54.0518 12.0695C57.7586 11.2367 61.4492 10.5182 65.1724 11.6776C65.6949 11.8409 66.4135 11.9389 66.3808 12.6737C66.3481 13.4086 65.646 13.4249 65.0907 13.5392C61.2532 14.3394 57.6443 13.2779 54.0518 12.0695Z" fill="#092164"/>
<path d="M64.4047 19.5162C61.498 19.0916 58.9832 17.7362 56.5991 16.0706C56.4521 15.9726 56.2725 15.7603 56.2725 15.597C56.2888 15.2541 56.6154 15.2704 56.8603 15.2867C59.7834 15.3521 62.6084 15.744 65.0579 17.5239C65.5641 17.8832 66.1847 18.2588 65.9397 18.9773C65.7111 19.7121 64.9599 19.3366 64.4047 19.5162Z" fill="#092162"/>
<path d="M59.4892 20.7081C61.8407 21.3286 63.9146 22.5534 65.3353 24.7252C65.5639 25.0682 65.7599 25.4764 65.466 25.8683C65.2047 26.2113 64.7801 26.1133 64.4535 26.0153C61.8571 25.2315 60.0444 23.4188 58.5911 21.2633C58.1012 20.5121 58.9503 20.7081 59.4892 20.7081Z" fill="#0A205F"/>
<path d="M42.7516 7.07278C42.621 7.82395 42.2291 8.34651 41.3309 8.34651C40.4491 8.33018 39.9919 7.84028 39.9592 6.99113C39.9265 6.02767 40.5634 5.53778 41.4289 5.55411C42.2454 5.57044 42.7026 6.15831 42.7516 7.07278Z" fill="#15245C"/>
<path d="M48.7934 20.5776C49.6589 20.9859 50.606 20.4307 51.6348 20.8716C50.3937 21.6391 49.1363 21.6391 47.8789 21.7207C47.8952 21.6717 47.8952 21.6064 47.9116 21.5574C47.8626 20.9532 48.4668 21.0185 48.7444 20.7573C48.7607 20.6919 48.777 20.643 48.7934 20.5776Z" fill="#272E4E"/>
<path d="M52.5334 9.52222C53.1702 10.1917 54.0357 9.50589 54.7216 9.88147C53.9704 9.96312 53.2355 10.0774 52.4844 10.1428C52.2558 10.1591 51.9128 10.1591 52.0435 9.78349C52.0924 9.65286 52.3701 9.60387 52.5334 9.52222Z" fill="#6A667A"/>
<path d="M48.7448 20.7406C48.6795 21.2142 48.1733 21.2468 47.912 21.5408C42.5395 20.7243 39.6818 17.148 37.8691 12.4124C38.3427 11.8572 38.9959 11.7265 39.6818 11.7102C41.0045 14.8455 42.6375 17.7522 45.7238 19.5485C46.6873 20.1037 47.6997 20.4303 48.7448 20.7406Z" fill="#14081E"/>
</svg>
